<svg width="14" height="13" viewBox="0 0 14 13" fill="none" xmlns="http://www.w3.org/2000/svg">
<g clip-path="url(#clip0_3_727)">
<path d="M13.3976 7.17136L8.60382 11.9564C8.39125 12.1685 8.10885 12.2852 7.80823 12.2852C7.50761 12.2852 7.22521 12.1685 7.00445 11.9479C6.79189 11.7357 6.67499 11.4539 6.67499 11.1539C6.67499 10.8539 6.79189 10.5721 7.00445 10.3602L9.83241 7.53774H1.13598C0.509536 7.53774 0 7.02924 0 6.39195C0 5.75465 0.509536 5.25827 1.13598 5.25827H9.81358L7.00445 2.45485C6.79189 2.24273 6.67499 1.9609 6.67499 1.66089C6.67499 1.36088 6.79189 1.07906 7.01296 0.858746C7.22552 0.646618 7.50792 0.529947 7.80854 0.529947C8.10916 0.529947 8.39156 0.646618 8.60412 0.858746L13.398 5.64374C13.8197 6.06466 13.8197 6.74984 13.398 7.17106L13.3976 7.17136Z" fill="#7C2128"/>
</g>
<defs>
<clipPath id="clip0_3_727">
<rect width="14" height="12" fill="white" transform="matrix(1 0 0 -1 0 12.2852)"/>
</clipPath>
</defs>
</svg>
