<svg width="14" height="13" viewBox="0 0 14 13" fill="none" xmlns="http://www.w3.org/2000/svg">
<g clip-path="url(#clip0_40_6886)">
<path d="M13.3976 7.53147L8.60382 12.3427C8.39126 12.556 8.10886 12.6733 7.80824 12.6733C7.50762 12.6733 7.22521 12.556 7.00446 12.3342C6.7919 12.1209 6.67499 11.8375 6.67499 11.5359C6.67499 11.2342 6.7919 10.9509 7.00446 10.7379L9.83241 7.89986H1.13598C0.509536 7.89986 0 7.38856 0 6.74777C0 6.10698 0.509536 5.60788 1.13598 5.60788H9.81359L7.00446 2.78906C6.7919 2.57577 6.67499 2.2924 6.67499 1.99074C6.67499 1.68909 6.7919 1.40571 7.01296 1.18419C7.22552 0.9709 7.50792 0.853588 7.80854 0.853588C8.10916 0.853588 8.39156 0.9709 8.60412 1.18419L13.398 5.99546C13.8197 6.41869 13.8197 7.10763 13.398 7.53116L13.3976 7.53147Z" fill="#7C2128"/>
</g>
<defs>
<clipPath id="clip0_40_6886">
<rect width="14" height="12.0659" fill="white" transform="matrix(1 0 0 -1 0 12.6733)"/>
</clipPath>
</defs>
</svg>
