<svg width="25" height="25" viewBox="0 0 25 25" fill="none" xmlns="http://www.w3.org/2000/svg">
<circle cx="12.5" cy="12.5" r="12.5" fill="#7C2128"/>
<g clip-path="url(#clip0_116_11763)">
<path d="M16.5697 13.3272L13.1456 16.7639C12.9938 16.9162 12.792 17 12.5773 17C12.3626 17 12.1609 16.9162 12.0032 16.7578C11.8514 16.6054 11.7678 16.403 11.7678 16.1875C11.7678 15.9721 11.8514 15.7697 12.0032 15.6175L14.0232 13.5904H7.81141C7.36395 13.5904 7 13.2252 7 12.7675C7 12.3097 7.36395 11.9532 7.81141 11.9532H14.0097L12.0032 9.9398C11.8514 9.78745 11.7678 9.58504 11.7678 9.36957C11.7678 9.1541 11.8514 8.95169 12.0093 8.79346C12.1611 8.64111 12.3628 8.55732 12.5775 8.55732C12.7923 8.55732 12.994 8.64111 13.1458 8.79346L16.57 12.2301C16.8712 12.5324 16.8712 13.0245 16.57 13.327L16.5697 13.3272Z" fill="white"/>
</g>
<defs>
<clipPath id="clip0_116_11763">
<rect width="10" height="8.61849" fill="white" transform="matrix(1 0 0 -1 7 17)"/>
</clipPath>
</defs>
</svg>
