<svg width="18" height="15" viewBox="0 0 18 15" fill="none" xmlns="http://www.w3.org/2000/svg">
<path d="M17.2123 2.09725C16.5984 2.37343 15.9443 2.55649 15.2624 2.64537C15.9639 2.21576 16.4994 1.54066 16.7511 0.726939C16.097 1.12692 15.3748 1.40945 14.6052 1.56711C13.9841 0.888837 13.0989 0.46875 12.1332 0.46875C10.2596 0.46875 8.7513 2.02847 8.7513 3.94055C8.7513 4.21567 8.774 4.48021 8.82971 4.73205C6.01627 4.59131 3.52678 3.20831 1.85439 1.10153C1.56242 1.62108 1.39116 2.21576 1.39116 2.85594C1.39116 4.058 1.9947 5.12356 2.89434 5.74047C2.35064 5.72989 1.81725 5.56799 1.36537 5.31297C1.36537 5.32355 1.36537 5.33731 1.36537 5.35107C1.36537 7.03776 2.53841 8.43876 4.07667 8.76149C3.80121 8.83874 3.50098 8.87577 3.18941 8.87577C2.97275 8.87577 2.75403 8.86308 2.54872 8.81652C2.9872 10.1911 4.23143 11.2016 5.71088 11.2344C4.55951 12.1582 3.09759 12.7148 1.51496 12.7148C1.23743 12.7148 0.971257 12.7021 0.705078 12.6671C2.20414 13.6586 3.98072 14.2247 5.89659 14.2247C12.1239 14.2247 15.5285 8.93397 15.5285 4.34794C15.5285 4.19451 15.5234 4.04636 15.5162 3.89928C16.1878 3.41041 16.7521 2.79986 17.2123 2.09725Z" fill="#A32638"/>
</svg>
