<svg width="18" height="18" viewBox="0 0 18 18" fill="none" xmlns="http://www.w3.org/2000/svg">
<path d="M17.1327 5.4855C17.094 4.6084 16.9522 4.00541 16.749 3.48291C16.5393 2.92829 16.2168 2.43173 15.7942 2.01895C15.3813 1.59973 14.8814 1.27399 14.3331 1.06766C13.8075 0.864477 13.2075 0.722641 12.3303 0.68397C11.4465 0.642024 11.1659 0.632324 8.92429 0.632324C6.68269 0.632324 6.40212 0.642024 5.52158 0.680695C4.64432 0.719366 4.04121 0.861328 3.51873 1.06438C2.96388 1.27399 2.46723 1.59646 2.05437 2.01895C1.63508 2.43173 1.30939 2.93156 1.1029 3.47976C0.899678 4.00541 0.757814 4.60513 0.719136 5.48222C0.677182 6.36587 0.66748 6.64639 0.66748 8.88756C0.66748 11.1287 0.677182 11.4092 0.71586 12.2896C0.754539 13.1667 0.896528 13.7697 1.09975 14.2922C1.30939 14.8468 1.63508 15.3434 2.05437 15.7562C2.46723 16.1754 2.96716 16.5011 3.51546 16.7075C4.04121 16.9106 4.64104 17.0525 5.51843 17.0911C6.39884 17.1299 6.67954 17.1395 8.92114 17.1395C11.1627 17.1395 11.4433 17.1299 12.3238 17.0911C13.2011 17.0525 13.8042 16.9106 14.3267 16.7075C15.4363 16.2785 16.3135 15.4015 16.7425 14.2922C16.9456 13.7666 17.0876 13.1667 17.1263 12.2896C17.165 11.4092 17.1747 11.1287 17.1747 8.88756C17.1747 6.64639 17.1714 6.36587 17.1327 5.4855ZM15.6459 12.2251C15.6104 13.0313 15.475 13.4666 15.3621 13.7569C15.0846 14.476 14.5138 15.0467 13.7945 15.3241C13.5042 15.437 13.0657 15.5724 12.2625 15.6078C11.3917 15.6466 11.1305 15.6562 8.92756 15.6562C6.72465 15.6562 6.4602 15.6466 5.59251 15.6078C4.78618 15.5724 4.35077 15.437 4.06049 15.3241C3.70255 15.1918 3.37675 14.9822 3.11229 14.7081C2.83814 14.4405 2.6285 14.118 2.49621 13.7601C2.38332 13.4699 2.24788 13.0313 2.21248 12.2284C2.17368 11.3577 2.1641 11.0965 2.1641 8.89398C2.1641 6.69149 2.17368 6.42708 2.21248 5.55969C2.24788 4.75352 2.38332 4.31818 2.49621 4.02796C2.6285 3.66997 2.83814 3.34435 3.11557 3.07982C3.38317 2.80572 3.7057 2.59612 4.06376 2.46398C4.35404 2.35111 4.79273 2.2157 5.59579 2.18018C6.46662 2.14151 6.72792 2.13181 8.93071 2.13181C11.1369 2.13181 11.3981 2.14151 12.2658 2.18018C13.0721 2.2157 13.5075 2.35111 13.7978 2.46398C14.1557 2.59612 14.4815 2.80572 14.746 3.07982C15.0201 3.3475 15.2298 3.66997 15.3621 4.02796C15.475 4.31818 15.6104 4.75667 15.6459 5.55969C15.6846 6.43036 15.6943 6.69149 15.6943 8.89398C15.6943 11.0965 15.6846 11.3545 15.6459 12.2251Z" fill="#1E1E1E"/>
<path d="M8.92429 4.64708C6.58278 4.64708 4.683 6.54637 4.683 8.88756C4.683 11.2287 6.58278 13.128 8.92429 13.128C11.2659 13.128 13.1656 11.2287 13.1656 8.88756C13.1656 6.54637 11.2659 4.64708 8.92429 4.64708ZM8.92429 11.6383C7.40524 11.6383 6.17307 10.4064 6.17307 8.88756C6.17307 7.36867 7.40524 6.13686 8.92429 6.13686C10.4435 6.13686 11.6755 7.36867 11.6755 8.88756C11.6755 10.4064 10.4435 11.6383 8.92429 11.6383Z" fill="#1E1E1E"/>
<path d="M14.3235 4.47942C14.3235 5.0261 13.8802 5.46937 13.3333 5.46937C12.7865 5.46937 12.3431 5.0261 12.3431 4.47942C12.3431 3.9326 12.7865 3.48946 13.3333 3.48946C13.8802 3.48946 14.3235 3.9326 14.3235 4.47942Z" fill="#1E1E1E"/>
</svg>
