<svg width="31" height="27" viewBox="0 0 31 27" fill="none" xmlns="http://www.w3.org/2000/svg">
<g clip-path="url(#clip0_116_12053)">
<path d="M27.125 2.45066L27.1251 2.45077C31.5197 6.1509 30.8575 12.1672 27.7432 15.3514L27.7429 15.3517L17.8082 25.4733C17.1949 26.0989 16.3773 26.4432 15.5 26.4432C14.6275 26.4432 13.8045 26.0925 13.1918 25.4676L3.25714 15.346L3.25699 15.3459C0.136484 12.1613 -0.513749 6.14505 3.87486 2.45083L27.125 2.45066ZM27.125 2.45066C23.8033 -0.342329 18.7259 0.0289175 15.5 3.13971M27.125 2.45066L15.5 3.13971M15.5 3.13971C12.2743 0.0289427 7.19692 -0.348128 3.87495 2.45075L15.5 3.13971ZM15.6785 7.5182L17.6608 5.49626L13.3392 5.49625L15.3215 7.5182L15.5 7.70029L15.6785 7.5182ZM17.6609 5.49613C19.7202 3.39885 22.9711 3.15845 25.0527 4.91182C27.8181 7.24425 27.4144 11.0835 25.4489 13.087C25.4489 13.087 25.4489 13.087 25.4489 13.0871L15.5158 23.207C15.5156 23.2073 15.5153 23.2075 15.5151 23.2078C15.5094 23.2134 15.5044 23.2181 15.5 23.222C15.4956 23.2181 15.4906 23.2134 15.4849 23.2078C15.4847 23.2075 15.4845 23.2073 15.4842 23.207L5.55111 13.087C3.56882 11.0667 3.17612 7.25028 5.94714 4.91764C8.04005 3.15837 11.2911 3.41011 13.3391 5.49613H17.6609Z" fill="#A32638" stroke="#A32638" stroke-width="0.5"/>
</g>
<defs>
<clipPath id="clip0_116_12053">
<rect width="31" height="27" fill="white"/>
</clipPath>
</defs>
</svg>
