<svg width="22" height="16" viewBox="0 0 22 16" fill="none" xmlns="http://www.w3.org/2000/svg">
<path d="M20.2982 1.81378C19.57 0.919132 18.2254 0.554199 15.6575 0.554199H6.33612C3.70947 0.554199 2.34209 0.942672 1.61656 1.89516C0.90918 2.82383 0.90918 4.19216 0.90918 6.08597V9.69555C0.90918 13.3645 1.74848 15.2273 6.33612 15.2273H15.6576C17.8844 15.2273 19.1184 14.9052 19.9167 14.1157C20.7353 13.3061 21.0846 11.9842 21.0846 9.69555V6.08597C21.0846 4.08879 21.0299 2.71239 20.2982 1.81378ZM13.8619 8.3891L9.62908 10.6752C9.53445 10.7263 9.43097 10.7517 9.32761 10.7517C9.2106 10.7517 9.09384 10.7191 8.99042 10.6544C8.7957 10.5325 8.67679 10.3144 8.67679 10.0791V5.52155C8.67679 5.2867 8.79537 5.06878 8.98971 4.94678C9.18411 4.82478 9.42589 4.81644 9.62758 4.92472L13.8604 7.1961C14.0757 7.31165 14.211 7.5414 14.2113 7.79206C14.2116 8.04293 14.0769 8.27301 13.8619 8.3891Z" fill="#1E1E1E"/>
</svg>
