<svg width="28" height="23" viewBox="0 0 28 23" fill="none" xmlns="http://www.w3.org/2000/svg">
<g clip-path="url(#clip0_28_3308)">
<path d="M1.07715 1.07715H5.16979L9.73633 14.4644H23.1128L26.8931 2.81114H12.095" stroke="#1E1E1E" stroke-width="2" stroke-linecap="round" stroke-linejoin="round"/>
<path d="M13.63 20.0001C13.63 20.8838 12.9136 21.6002 12.0299 21.6002C11.1461 21.6002 10.4297 20.8838 10.4297 20.0001C10.4297 19.1163 11.1461 18.3999 12.0299 18.3999C12.9136 18.3999 13.63 19.1163 13.63 20.0001Z" fill="#1E1E1E" stroke="#1E1E1E"/>
<path d="M22.2462 20.0001C22.2462 20.8838 21.5298 21.6002 20.6461 21.6002C19.7623 21.6002 19.0459 20.8838 19.0459 20.0001C19.0459 19.1163 19.7623 18.3999 20.6461 18.3999C21.5298 18.3999 22.2462 19.1163 22.2462 20.0001Z" fill="#1E1E1E" stroke="#1E1E1E"/>
</g>
<defs>
<clipPath id="clip0_28_3308">
<rect width="27.97" height="22.1003" fill="white"/>
</clipPath>
</defs>
</svg>
