<svg width="10" height="9" viewBox="0 0 10 9" fill="none" xmlns="http://www.w3.org/2000/svg">
<g clip-path="url(#clip0_28_3339)">
<path d="M0.430252 3.72745L3.85442 0.290833C4.00625 0.138481 4.20796 0.0546875 4.42269 0.0546875C4.63742 0.0546875 4.83913 0.138481 4.99682 0.296927C5.14865 0.449279 5.23215 0.651689 5.23215 0.867158C5.23215 1.08263 5.14865 1.28504 4.99682 1.43717L2.97685 3.46432L9.18859 3.46432C9.63605 3.46432 10 3.82953 10 4.28724C10 4.74494 9.63605 5.10145 9.18859 5.10145L2.9903 5.10145L4.99682 7.11488C5.14865 7.26724 5.23215 7.46965 5.23215 7.68512C5.23215 7.90058 5.14865 8.10299 4.99075 8.26122C4.83892 8.41357 4.6372 8.49737 4.42247 8.49737C4.20774 8.49737 4.00603 8.41357 3.8542 8.26122L0.430036 4.8246C0.128764 4.52229 0.128764 4.0302 0.430036 3.72767L0.430252 3.72745Z" fill="#F1C400"/>
</g>
<defs>
<clipPath id="clip0_28_3339">
<rect width="10" height="8.61849" fill="white" transform="matrix(-1 0 0 1 10 0.0546875)"/>
</clipPath>
</defs>
</svg>
