<svg width="10" height="9" viewBox="0 0 10 9" fill="none" xmlns="http://www.w3.org/2000/svg">
<g clip-path="url(#clip0_28_3337)">
<path d="M9.56975 5.00057L6.14558 8.43719C5.99375 8.58955 5.79204 8.67334 5.57731 8.67334C5.36258 8.67334 5.16087 8.58955 5.00318 8.4311C4.85135 8.27875 4.76785 8.07634 4.76785 7.86087C4.76785 7.6454 4.85135 7.44299 5.00318 7.29086L7.02315 5.26371H0.811415C0.363955 5.26371 0 4.8985 0 4.44079C0 3.98308 0.363955 3.62658 0.811415 3.62658H7.0097L5.00318 1.61314C4.85135 1.46079 4.76785 1.25838 4.76785 1.04291C4.76785 0.827443 4.85135 0.625033 5.00925 0.466805C5.16108 0.314453 5.3628 0.230659 5.57753 0.230659C5.79226 0.230659 5.99397 0.314453 6.1458 0.466805L9.56996 3.90342C9.87124 4.20573 9.87124 4.69783 9.56996 5.00036L9.56975 5.00057Z" fill="#F1C400"/>
</g>
<defs>
<clipPath id="clip0_28_3337">
<rect width="10" height="8.61849" fill="white" transform="matrix(1 0 0 -1 0 8.67334)"/>
</clipPath>
</defs>
</svg>
