<svg width="10" height="10" viewBox="0 0 10 10" fill="none" xmlns="http://www.w3.org/2000/svg">
<path d="M3.42093 3.06799C3.42093 3.06799 1.52888 3.27755 0.266714 3.41766C0.152952 3.43143 0.0523622 3.50747 0.014641 3.62303C-0.0230802 3.73859 0.0146409 3.85894 0.0984658 3.93498C1.03611 4.79059 2.44496 6.07192 2.44496 6.07192C2.44377 6.07192 2.05817 7.93582 1.80191 9.17943C1.78035 9.29199 1.82107 9.41114 1.91926 9.4824C2.01686 9.55365 2.1426 9.55484 2.24139 9.49916C3.34548 8.87167 4.99923 7.92804 4.99923 7.92804C4.99923 7.92804 6.65357 8.87167 7.75587 9.49976C7.85646 9.55484 7.9822 9.55365 8.0798 9.4824C8.17799 9.41114 8.21871 9.29199 8.19655 9.18003C7.94029 7.93582 7.55529 6.07192 7.55529 6.07192C7.55529 6.07192 8.96415 4.79059 9.90179 3.93678C9.98562 3.85834 10.0227 3.73799 9.98562 3.62303C9.94849 3.50807 9.8479 3.43203 9.73414 3.41886C8.47198 3.27755 6.57933 3.06799 6.57933 3.06799C6.57933 3.06799 5.79497 1.33282 5.27226 0.176032C5.22316 0.0724488 5.12018 0 4.99923 0C4.87828 0 4.7747 0.0730475 4.728 0.176032C4.20469 1.33282 3.42093 3.06799 3.42093 3.06799Z" fill="#DBDBDB"/>
</svg>
